<?xml version="1.0" standalone="no"?>
<!DOCTYPE svg PUBLIC "-//W3C//DTD SVG 20010904//EN"
 "http://www.w3.org/TR/2001/REC-SVG-20010904/DTD/svg10.dtd">
<svg version="1.0" xmlns="http://www.w3.org/2000/svg"
 width="245.000000pt" height="245.000000pt" viewBox="0 0 245.000000 245.000000"
 preserveAspectRatio="xMidYMid meet">
<metadata>
Created by potrace 1.14, written by Peter Selinger 2001-2017
</metadata>
<g transform="translate(0.000000,245.000000) scale(0.100000,-0.100000)"
fill="#000000" stroke="none">
<path d="M1304 2296 c-49 -22 -95 -87 -110 -158 -7 -33 -6 -158 1 -188 3 -14
7 -29 8 -35 5 -19 18 -35 27 -30 4 3 8 21 8 41 0 46 24 102 77 179 73 105 91
159 64 191 -14 17 -35 17 -75 0z m5 -53 c-8 -10 -20 -24 -28 -32 -7 -8 -22
-34 -32 -58 -21 -48 -32 -57 -19 -15 16 54 23 67 49 94 29 30 51 38 30 11z
m-82 -165 c-3 -8 -6 -5 -6 6 -1 11 2 17 5 13 3 -3 4 -12 1 -19z"/>
<path d="M635 2190 c-22 -10 -50 -28 -62 -41 -19 -22 -20 -27 -8 -55 13 -32 8
-30 200 -93 119 -40 203 -80 257 -122 l39 -32 -40 -18 c-23 -10 -53 -30 -67
-44 -17 -17 -30 -23 -37 -17 -26 20 -135 45 -192 45 -119 -3 -226 -67 -240
-145 -6 -32 25 -59 59 -52 79 15 89 19 266 103 22 11 120 14 121 4 1 -4 2 -35
4 -69 1 -44 8 -69 24 -91 20 -27 21 -35 12 -70 -6 -22 -29 -68 -51 -102 -43
-66 -45 -69 -87 -117 -16 -17 -39 -44 -53 -60 -109 -124 -156 -206 -195 -339
-30 -105 -38 -164 -37 -280 3 -222 64 -366 177 -415 96 -41 218 -55 495 -54
264 0 324 6 447 45 97 31 154 108 187 250 18 74 18 276 1 364 -25 130 -95 286
-162 361 -145 162 -239 293 -249 351 -3 15 -7 29 -9 32 -3 2 7 17 20 33 14 16
25 39 26 51 6 132 0 159 -46 195 -14 11 -25 23 -25 26 0 4 40 48 90 99 74 76
90 97 90 123 0 38 -21 57 -61 56 -30 -1 -41 -11 -228 -206 -42 -45 -45 -46
-105 -46 l-62 0 -13 38 c-36 98 -157 234 -248 277 -70 33 -181 40 -238 15z
m921 -127 c5 -19 -8 -38 -77 -109 -227 -231 -234 -240 -230 -286 3 -29 -55
-24 -63 5 -16 59 -12 64 280 362 55 56 81 65 90 28z m-504 -106 c36 -61 58
-108 44 -96 -11 11 -76 121 -76 130 0 5 -4 9 -9 9 -5 0 -11 7 -14 14 -14 37
21 0 55 -57z m150 -153 c-21 -29 -28 -30 -42 -5 -12 23 11 42 41 34 17 -5 17
-6 1 -29z m-93 -13 c30 -42 27 -58 -15 -66 -21 -3 -47 -13 -60 -21 -17 -12
-28 -13 -42 -5 -48 26 -22 81 50 107 46 17 44 17 67 -15z m337 -32 c9 -15 -4
-56 -21 -62 -13 -6 -91 23 -107 38 -3 4 10 22 29 40 l36 34 28 -20 c16 -11 31
-24 35 -30z m-294 -66 c8 -30 -2 -43 -28 -38 -13 3 -36 7 -50 10 -32 7 -28 13
23 30 49 18 50 18 55 -2z m199 -18 c0 -5 -14 -13 -31 -16 -33 -7 -48 7 -36 36
5 13 10 13 36 3 17 -7 31 -17 31 -23z m101 -56 c-3 -18 -16 -38 -33 -50 -16
-11 -29 -17 -29 -13 0 3 -6 2 -12 -4 -20 -16 -111 -29 -190 -27 -87 2 -177 27
-203 55 -17 19 -30 90 -16 90 3 0 31 -10 61 -22 102 -40 322 -31 395 17 17 11
21 10 26 -2 3 -9 3 -29 1 -44z m-372 -113 c95 -16 92 -14 95 -58 2 -35 14
-171 20 -228 2 -19 7 -69 10 -110 4 -41 8 -92 10 -112 3 -22 0 -38 -6 -38 -6
0 -47 9 -92 21 -140 36 -210 41 -284 20 -62 -17 -89 -47 -118 -135 -32 -96
-39 -144 -39 -261 0 -152 24 -246 75 -294 83 -77 747 -89 889 -16 56 29 78 78
98 216 9 59 8 131 -2 209 -12 96 -25 141 -53 178 -45 61 -112 79 -197 54 -47
-13 -61 -17 -113 -29 -15 -4 -23 -1 -24 8 -1 8 -2 25 -4 39 -2 14 -6 57 -9 95
-3 39 -8 93 -11 120 -10 100 -15 151 -20 219 -4 38 -7 74 -8 79 -1 5 22 17 51
27 51 17 53 17 63 -1 5 -11 7 -19 3 -19 -3 0 11 -30 31 -67 39 -72 130 -191
214 -283 105 -114 171 -301 176 -495 5 -206 -43 -365 -127 -422 -41 -27 -127
-50 -238 -61 -85 -9 -507 -8 -545 1 -11 3 -45 8 -75 12 -64 9 -136 38 -168 68
-35 32 -73 112 -88 184 -14 70 -19 242 -9 303 2 14 7 41 10 60 18 102 88 268
135 318 11 11 40 47 66 79 25 32 54 65 64 74 33 28 117 163 136 216 14 41 21
50 34 43 8 -4 31 -11 50 -14z m186 -58 c1 -29 -3 -37 -20 -42 -26 -7 -33 1
-39 41 -6 38 -1 45 33 41 21 -3 25 -8 26 -40z m-310 -476 c-2 -4 -21 -9 -41
-10 -43 -3 -113 -36 -122 -57 -8 -21 -23 -18 -23 4 0 23 19 40 67 56 40 14
126 19 119 7z m-216 -197 c-18 -55 -19 -56 -15 -19 4 41 27 104 32 88 1 -5 -6
-36 -17 -69z m505 49 c-30 -22 -171 -64 -216 -64 -55 0 -49 16 10 24 27 4 87
19 133 35 84 30 109 31 73 5z m-523 -151 c-5 -59 -10 -63 -11 -10 -1 26 3 47
7 47 4 0 6 -17 4 -37z"/>
<path d="M1714 1847 c-62 -20 -124 -90 -124 -140 0 -28 77 -41 140 -24 46 12
110 65 138 115 l22 40 -32 8 c-50 11 -111 11 -144 1z"/>
<path d="M1629 1553 c-66 -22 -73 -36 -42 -91 46 -84 109 -139 187 -164 65
-21 240 -16 264 7 5 5 -29 76 -48 100 -43 55 -110 114 -155 134 -60 28 -145
34 -206 14z m188 -39 c38 -18 82 -54 65 -54 -5 0 -35 12 -66 26 -31 14 -75 27
-98 29 -63 5 -65 6 -43 15 29 12 98 4 142 -16z"/>
<path d="M653 1505 c-71 -32 -132 -113 -153 -202 -5 -21 -4 -33 4 -36 37 -14
183 20 222 52 55 45 112 161 94 191 -15 24 -112 21 -167 -5z"/>
</g>
</svg>
